# xmcd CD database file
#
# Track frame offsets:
#	150
#	13705
#	31887
#	49942
#	67177
#	69282
#	91342
#	108647
#	134320
#	150217
#	169037
#	187945
#	208780
#	228807
#	255897
#
# Disc length: 4440 seconds
#
# Revision: 0
# Processed by: cddbd v1.5.1PL0 Copyright (c) Steve Scherf et al.
# Submitted via: CDex 1.50
#
DISCID=bb11560f
DTITLE=BOY-KEN - Everything Is
DYEAR=2004
DGENRE=Hip-Hop
TTITLE0=SHOT IT!
TTITLE1=DANCEHALL FREAK
TTITLE2=エンジェル
TTITLE3=カリブの小さな島の唄
TTITLE4=SKIT
TTITLE5=なんてったってサタデー
TTITLE6=CRUISIN' THE NIGHT
TTITLE7=DEM A MONSTER
TTITLE8=JUICE
TTITLE9=BURN BAGGA DUBI DUBI
TTITLE10=LIVE and LOVE
TTITLE11=言葉にならない事ばかり
TTITLE12=SOUND SHOWER
TTITLE13=TELL ME WHY?
TTITLE14=CopyControData
EXTD=YEAR: 2004/08/04
EXTT0=
EXTT1=
EXTT2=
EXTT3=
EXTT4=
EXTT5=
EXTT6=
EXTT7=
EXTT8=
EXTT9=
EXTT10=
EXTT11=
EXTT12=
EXTT13=
EXTT14=
PLAYORDER=
